<svg xmlns="http://www.w3.org/2000/svg" xmlns:android="http://schemas.android.com/apk/res/android" width="512dp" height="512dp" viewportWidth="512" viewportHeight="512">
	<path d="M100,80c11.05,0 20,8.95 20,20s-8.95,20 -20,20s-20,-8.95 -20,-20S88.95,80 100,80z" fill="@color/farmgreen"/>
	<path d="M155,230c8.28,0 15,6.72 15,15s-6.72,15 -15,15s-15,-6.72 -15,-15S146.72,230 155,230z" fill="@color/farmgreen"/>
	<path d="M440,130c11.05,0 20,8.95 20,20s-8.95,20 -20,20s-20,-8.95 -20,-20S428.95,130 440,130z" fill="@color/farmgreen"/>
	<path d="M330,90h30c0,13.8 -5.6,26.3 -14.65,35.35C336.3,134.4 323.8,140 310,140h-30c0,-13.8 5.6,-26.3 14.65,-35.35C303.7,95.6 316.2,90 330,90z" fill="@color/farmgreen"/>
	<path d="M280,220h-30c-13.8,0 -26.3,-5.6 -35.35,-14.65C205.6,196.3 200,183.8 200,170h30c13.8,0 26.3,5.6 35.35,14.65C274.4,193.7 280,206.2 280,220z" fill="@color/farmgreen"/>
	<path d="M330,170h30c0,13.8 -5.6,26.3 -14.65,35.35C336.3,214.4 323.8,220 310,220h-30c0,-13.8 5.6,-26.3 14.65,-35.35C303.7,175.6 316.2,170 330,170z" fill="@color/farmgreen"/>
	<path d="M280,140h-30c-13.8,0 -26.3,-5.6 -35.35,-14.65C205.6,116.3 200,103.8 200,90h30c13.8,0 26.3,5.6 35.35,14.65C274.4,113.7 280,126.2 280,140z" fill="@color/farmgreen"/>
	<path d="M329.26,376.61l91.77,-91.77c5.6,-5.6 12.94,-8.4 20.28,-8.4c7.34,0 14.69,2.8 20.29,8.4c11.2,11.21 11.2,29.37 0,40.57l-133.1,133.1l-178.75,-6.72l-25.16,25.16l-80.13,-80.12l76.41,-76.41l186.04,20.32c6.27,0.54 11.93,3.26 16.18,7.4c4.25,4.15 7.11,9.73 7.81,15.99C331.39,368.54 330.77,372.79 329.26,376.61z" fill="@color/farmgreen"/>
	<path d="M381.72,215.87l14.14,-14.14l14.14,14.14l-14.14,14.14z" fill="@color/farmgreen"/>
	<path d="M379.99,55.86l14.14,-14.14l14.14,14.14l-14.14,14.14z" fill="@color/farmgreen"/>
	<path d="M61.72,185.86l14.14,-14.14l14.14,14.14l-14.14,14.14z" fill="@color/farmgreen"/>
	<path d="M149.75,461.79c-2.56,0 -5.12,-0.98 -7.07,-2.93l-44.76,-44.76c-3.9,-3.9 -3.9,-10.24 0,-14.14c3.9,-3.9 10.24,-3.9 14.14,0l44.76,44.76c3.9,3.9 3.9,10.24 0,14.14C154.87,460.81 152.31,461.79 149.75,461.79z" fill="@color/farmgreen"/>
	<path d="M124.59,486.95c-2.56,0 -5.12,-0.98 -7.07,-2.93l-80.13,-80.12c-1.88,-1.88 -2.93,-4.42 -2.93,-7.07s1.05,-5.2 2.93,-7.07l76.41,-76.41c2.14,-2.14 5.14,-3.2 8.16,-2.87l185.94,20.31c8.32,0.75 16.19,4.36 22.18,10.19c3.61,3.53 6.43,7.75 8.31,12.37l75.58,-75.58c7.31,-7.3 17.02,-11.33 27.35,-11.33c10.34,0 20.06,4.02 27.36,11.33c15.08,15.09 15.08,39.63 0,54.71l-133.1,133.1c-1.97,1.97 -4.65,3.04 -7.45,2.92l-174.39,-6.56l-22.08,22.07C129.71,485.97 127.15,486.95 124.59,486.95zM58.6,396.83l65.99,65.98l18.09,-18.09c1.97,-1.97 4.68,-3.03 7.45,-2.92l174.39,6.56l130.01,-130.01c7.28,-7.28 7.28,-19.14 -0,-26.43c-3.52,-3.53 -8.22,-5.47 -13.22,-5.47c-4.99,0 -9.68,1.94 -13.21,5.47l-90.4,90.4c-6.13,13.33 -19.81,21.76 -34.63,21.09l-102.51,-4.45c-5.52,-0.24 -9.8,-4.91 -9.56,-10.42s4.89,-9.81 10.42,-9.56l102.52,4.45c6.06,0.27 11.65,-2.81 14.72,-7.84c0.27,-1.48 0.87,-2.91 1.81,-4.17c0.56,-2 0.72,-4.06 0.49,-6.17c-0.42,-3.76 -2.15,-7.29 -4.86,-9.94c-2.7,-2.63 -6.28,-4.27 -10.05,-4.59c-0.08,-0.01 -0.15,-0.01 -0.23,-0.02l-181.27,-19.8L58.6,396.83z" fill="@color/farmgreen"/>
	<path d="M280,260c-5.52,0 -10,-4.48 -10,-10V50c0,-5.52 4.48,-10 10,-10s10,4.48 10,10v200C290,255.52 285.52,260 280,260z" fill="@color/farmgreen"/>
	<path d="M310,230h-30c-5.52,0 -10,-4.48 -10,-10c0,-16.02 6.24,-31.08 17.58,-42.42C298.92,166.24 313.98,160 330,160h30c5.52,0 10,4.48 10,10c0,16.02 -6.24,31.08 -17.58,42.42C341.08,223.76 326.02,230 310,230zM291.26,210H310c10.68,0 20.72,-4.16 28.28,-11.72c5.14,-5.14 8.71,-11.43 10.47,-18.28H330c-10.68,0 -20.72,4.16 -28.28,11.72C296.58,196.86 293.01,203.15 291.26,210z" fill="@color/farmgreen"/>
	<path d="M280,230h-30c-16.02,0 -31.08,-6.24 -42.42,-17.58C196.24,201.08 190,186.02 190,170c0,-5.52 4.48,-10 10,-10h30c16.02,0 31.08,6.24 42.42,17.58C283.76,188.91 290,203.98 290,220C290,225.52 285.52,230 280,230zM211.26,180c1.76,6.85 5.33,13.14 10.47,18.28C229.28,205.84 239.32,210 250,210h18.75c-1.76,-6.85 -5.33,-13.14 -10.47,-18.28C250.72,184.16 240.68,180 230,180H211.26z" fill="@color/farmgreen"/>
	<path d="M310,150h-30c-5.52,0 -10,-4.48 -10,-10c0,-16.02 6.24,-31.08 17.58,-42.42C298.92,86.24 313.98,80 330,80h30c5.52,0 10,4.48 10,10c0,16.02 -6.24,31.08 -17.58,42.42C341.08,143.76 326.02,150 310,150zM291.26,130H310c10.68,0 20.72,-4.16 28.28,-11.72c5.14,-5.14 8.71,-11.43 10.47,-18.28H330c-10.68,0 -20.72,4.16 -28.28,11.72C296.58,116.86 293.01,123.15 291.26,130z" fill="@color/farmgreen"/>
	<path d="M280,150h-30c-16.02,0 -31.08,-6.24 -42.42,-17.58C196.24,121.08 190,106.02 190,90c0,-5.52 4.48,-10 10,-10h30c16.02,0 31.08,6.24 42.42,17.58C283.76,108.92 290,123.98 290,140C290,145.52 285.52,150 280,150zM211.26,100c1.76,6.85 5.33,13.14 10.47,18.28C229.28,125.84 239.32,130 250,130h18.75c-1.76,-6.85 -5.33,-13.14 -10.47,-18.28C250.72,104.16 240.68,100 230,100H211.26z" fill="@color/farmgreen"/>
	<path d="M370,280c-1.1,0 -2.23,-0.19 -3.33,-0.57c-97.74,-34.47 -150.72,-1.37 -151.25,-1.03c-4.64,3 -10.83,1.66 -13.83,-2.97c-3,-4.64 -1.67,-10.83 2.97,-13.83c2.47,-1.6 61.85,-38.73 168.75,-1.03c5.21,1.84 7.94,7.55 6.1,12.76C377.98,277.43 374.12,280 370,280z" fill="@color/farmgreen"/>
	<path d="M155,270c-13.78,0 -25,-11.22 -25,-25s11.22,-25 25,-25s25,11.22 25,25S168.79,270 155,270zM155,240c-2.76,0 -5,2.24 -5,5s2.24,5 5,5s5,-2.24 5,-5S157.76,240 155,240z" fill="@color/farmgreen"/>
	<path d="M100,130c-16.54,0 -30,-13.46 -30,-30s13.46,-30 30,-30s30,13.46 30,30S116.54,130 100,130zM100,90c-5.51,0 -10,4.49 -10,10s4.49,10 10,10s10,-4.49 10,-10S105.51,90 100,90z" fill="@color/farmgreen"/>
	<path d="M440,180c-16.54,0 -30,-13.46 -30,-30s13.46,-30 30,-30s30,13.46 30,30S456.54,180 440,180zM440,140c-5.51,0 -10,4.49 -10,10s4.49,10 10,10s10,-4.49 10,-10S445.51,140 440,140z" fill="@color/farmgreen"/>
</svg>
